# xmcd
#
# Track frame offsets:
#	182
#	11095
#	22812
#	34492
#	44362
#	56425
#	69050
#	78617
#	86205
#	99162
#	108667
#	119627
#
# Disc length: 1735 seconds
#
# Revision: 7
# Processed by: cddbd v1.5.2PL0 Copyright (c) Steve Scherf et al.
# Submitted via: audiograbber 1.83.01
#
DISCID=9806c50c
DTITLE=Dolly Parton and Donna Fargo - The Queens Of Country
DYEAR=1988
DGENRE=Country
TTITLE0=Dolly Parton - Honky tonk angels
TTITLE1=Dolly Parton - Makin' believe
TTITLE2=Dolly Parton - Letter to heaven
TTITLE3=Dolly Parton - Release me
TTITLE4=Dolly Parton - Two little orphans
TTITLE5=Dolly Parton - Little blossom
TTITLE6=Dolly Parton - Girl left alone
TTITLE7=Dolly Parton - Puppy love
TTITLE8=Donna Fargo - Daddy
TTITLE9=Donna Fargo - Sticks and stones
TTITLE10=Donna Fargo - Wishful thinking
TTITLE11=Donna Fargo - All that's keeping me alive
EXTD=P and C 1988 Object Enterprises Ltd. OR0051
EXTT0=
EXTT1=
EXTT2=
EXTT3=
EXTT4=
EXTT5=
EXTT6=
EXTT7=
EXTT8=
EXTT9=
EXTT10=
EXTT11=
PLAYORDER=
